<svg xmlns="http://www.w3.org/2000/svg" version="1" width="580" height="580">
  <path white-space="normal" d="M264 54c-8 7-13 18-13 24v135L59 330c-6 3-9 10-9 17v53c0 13 13 23 26 19l178-58v73l-40 31c-3 3-6 7-6 12l1 41c0 11 9 18 19 15l65-20 67 21c10 3 19-4 19-14v-42c0-5-2-9-5-12l-40-31v-73l178 58c12 4 26-6 26-19v-53c0-7-4-13-10-17L333 214V86c0-12-5-23-13-31-8-7-18-10-28-11s-20 3-28 10z" solid-color="#000000" color="#000" stroke-width="64" fill="none" stroke-linejoin="round" stroke="#fff"/>
  <path d="M264 54c-8 7-13 18-13 24v135L59 330c-6 3-9 10-9 17v53c0 13 13 23 26 19l178-58v73l-40 31c-3 3-6 7-6 12l1 41c0 11 9 18 19 15l65-20 67 21c10 3 19-4 19-14v-42c0-5-2-9-5-12l-40-31v-73l178 58c12 4 26-6 26-19v-53c0-7-4-13-10-17L333 214V86c0-12-5-23-13-31-8-7-18-10-28-11s-20 3-28 10z" white-space="normal" fill="#0092da" color="#000" solid-color="#000000"/>
</svg>
