<svg xmlns="http://www.w3.org/2000/svg" version="1" width="580" height="580">
  <path d="M40 167c-7 4-8 13-3 18 18 26 22 22 47 11v274c0 7 5 12 12 12h30c6 0 12-5 12-12l-1-295 9-3 144-17 144 17 5 3v296c0 6 5 11 12 11h30c7 0 12-5 12-11V197c32 13 26 13 50-11 5-5 4-14-3-18L295 37c-3-2-7-2-11 0z" solid-color="#000000" color="#000" stroke-width="64" fill="none" stroke-linejoin="round" stroke="#fff"/>
  <path d="M317 255c17-2 29-14 30-30-2-17-15-30-30-30-17 1-30 14-30 30 2 17 14 29 30 30zm-131 63c-3 5-2 9 3 12l14 8c5 3 8 2 11-3l44-76c3-5 2-9-3-11-6-3-10-7-19-10-3 0-5 1-7 4zm38 27c-3 5-4 10-4 17l1 89-30 66c-8 26 24 39 34 19l34-72 2-8-1-54 34 46 10 81c11 23 42 16 39-7l-12-93c-1-7-5-11-9-16l-30-42 29-51 15 18 5 4 29 14v171c1 14 12 14 12 1l1-170c14-9 12-25-1-30l-25-15-36-44c-5-6-12-9-24-11-16-1-26 5-33 17z" solid-color="#000000" color="#000" stroke-width="64" fill="none" stroke-linejoin="round" stroke="#fff"/>
  <path d="M40 167c-7 4-8 13-3 18 18 26 22 22 47 11v274c0 7 5 12 12 12h30c6 0 12-5 12-12l-1-295 9-3 144-17 144 17 5 3v296c0 6 5 11 12 11h30c7 0 12-5 12-11V197c32 13 26 13 50-11 5-5 4-14-3-18L295 37c-3-2-7-2-11 0z" fill="#0092da" fill-rule="evenodd"/>
  <path d="M317 255c17-2 29-14 30-30-2-17-15-30-30-30-17 1-30 14-30 30 2 17 14 29 30 30zm-131 63c-3 5-2 9 3 12l14 8c5 3 8 2 11-3l44-76c3-5 2-9-3-11-6-3-10-7-19-10-3 0-5 1-7 4zm38 27c-3 5-4 10-4 17l1 89-30 66c-8 26 24 39 34 19l34-72 2-8-1-54 34 46 10 81c11 23 42 16 39-7l-12-93c-1-7-5-11-9-16l-30-42 29-51 15 18 5 4 29 14v171c1 14 12 14 12 1l1-170c14-9 12-25-1-30l-25-15-36-44c-5-6-12-9-24-11-16-1-26 5-33 17z" fill="#0092da" fill-rule="evenodd"/>
</svg>
