<svg height="580" width="580" xmlns="http://www.w3.org/2000/svg">
  <path d="M88 331c-15 24-32.4 45-48 68 2.5 6.8 6.7 11.5 12 14.9-.4.1-.7.2-1 .3 10.5 13.7 105 23.6 139 25 86 1.2 87 2.1 168-.2 73-1.9 124-4.4 154-12.8 5.3-1.3 10.4-3.2 15-5.8 3.5-2.1 6.7-4 9.2-6.7 11.7-24.4-3.7-52-22.4-68C469 294 429 238 378 193c-17-9-33-13-50-12-100 0-192 65-240 150z" fill="none" opacity=".8" stroke="#fff" stroke-linejoin="round" stroke-width="64"/>
  <path d="M88 331c-15 24-32.4 45-48 68 2.5 6.8 6.7 11.5 12 14.9-.4.1-.7.2-1 .3 10.5 13.7 105 23.6 139 25 86 1.2 87 2.1 168-.2 73-1.9 124-4.4 154-12.8 5.3-1.3 10.4-3.2 15-5.8 3.5-2.1 6.7-4 9.2-6.7 11.7-24.4-3.7-52-22.4-68C469 294 429 238 378 193c-17-9-33-13-50-12-100 0-192 65-240 150z"/>
  <path d="M237 231c-51 21-70 39-113 102-29 43-62 79-73 81 10.5 13.7 105 23.6 139 25 86 1.2 87 2.1 168-.2 101-2.7 160-6.4 178-25.3-4-2.5-11-9.5-18-19.5-11-15-40-52-66-81-70-79-96-108-131-109-21 0-45 11-84 27z" fill="#fff" opacity=".9"/>
  <path d="M397 356c20.3 28 36.9 55 36.9 58 0 3.8-64 6.9-141 6.9-78 0-141-3-141-6.3C151 383 241 280 270 280c45.6 0 93 28 127 76z"/>
</svg>
